<svg xmlns="http://www.w3.org/2000/svg" xmlns:xlink="http://www.w3.org/1999/xlink" viewBox="0 0 500 500" width="500" height="500" preserveAspectRatio="xMidYMid meet" style="width: 100%; height: 100%; transform: translate3d(0px, 0px, 0px); content-visibility: visible;"><defs><clipPath id="__lottie_element_51"><rect width="500" height="500" x="0" y="0"/></clipPath><filter id="__lottie_element_55" x="-100%" y="-100%" width="300%" height="300%"><feGaussianBlur result="filter_result_0" stdDeviation="52.5 52.5" edgeMode="wrap"/></filter><g id="__lottie_element_56"><g clip-path="url(#__lottie_element_57)" transform="matrix(1,0,0,1,0,0)" opacity="1" style="display: block;"><g mask="url(#__lottie_element_65_2)" style="display: block;"><g clip-path="url(#__lottie_element_62)" transform="matrix(1,0,0,1,0,0)" opacity="1"><g mask="url(#__lottie_element_77_2)" style="display: block;"><g clip-path="url(#__lottie_element_74)" transform="matrix(1,0,0,1,0,0)" opacity="1"><g mask="url(#__lottie_element_109_2)" style="display: block;"><g transform="matrix(0.5335738062858582,0.8457534909248352,-0.8457534909248352,0.5335738062858582,131.18157958984375,264.2481994628906)" opacity="1"><g opacity="1" transform="matrix(1,0,0,1,0,0)"><path stroke-linecap="round" stroke-linejoin="round" fill-opacity="0" stroke="rgb(8,167,137)" stroke-opacity="1" stroke-width="12" d=" M-40.0989990234375,-30.43400001525879 C-40.0989990234375,-30.43400001525879 22.84600067138672,-1.6419999599456787 22.84600067138672,-1.6419999599456787 C22.84600067138672,-1.6419999599456787 90.68900299072266,20.733999252319336 90.68900299072266,20.733999252319336 C90.68900299072266,20.733999252319336 91.19999694824219,44.69200134277344 67.03900146484375,44.16899871826172 C67.03900146484375,44.16899871826172 2.7790000438690186,23.461999893188477 2.7790000438690186,23.461999893188477 C2.7790000438690186,23.461999893188477 -67.12000274658203,-6.385000228881836 -67.12000274658203,-6.385000228881836"/></g></g></g><g transform="matrix(0.9987455010414124,-0.05007421597838402,0.05007421597838402,0.9987455010414124,107.49962615966797,244.4612274169922)" opacity="1" style="display: block;"><g opacity="1" transform="matrix(1,0,0,1,0,0)"><path stroke-linecap="round" stroke-linejoin="round" fill-opacity="0" stroke="rgb(8,167,137)" stroke-opacity="1" stroke-width="12" d=" M13.319999694824219,57.77899932861328 C13.319999694824219,57.77899932861328 -46.18600082397461,32.2239990234375 -46.18600082397461,32.2239990234375 C-46.18600082397461,32.2239990234375 -15.956000328063965,-38.167999267578125 -15.956000328063965,-38.167999267578125 C-8.89900016784668,-54.599998474121094 10.142999649047852,-62.20100021362305 26.575000762939453,-55.14400100708008 C26.575000762939453,-55.14400100708008 26.575000762939453,-55.143001556396484 26.575000762939453,-55.143001556396484 C43.00699996948242,-48.08599853515625 50.606998443603516,-29.045000076293945 43.54999923706055,-12.61299991607666 C43.54999923706055,-12.61299991607666 13.319999694824219,57.77899932861328 13.319999694824219,57.77899932861328z"/></g></g></g></g><g mask="url(#__lottie_element_84_2)" style="display: block;"><g transform="matrix(1,0,0,1,155.22900390625,339.1919860839844)" opacity="1"><g opacity="1" transform="matrix(1,0,0,1,0,0)"><path stroke-linecap="round" stroke-linejoin="round" fill-opacity="0" stroke="rgb(18,19,49)" stroke-opacity="1" stroke-width="12" d=" M-89.25814056396484,-58.819725036621094 C-70.54808044433594,-0.160084530711174 -11.30148696899414,20.383642196655273 -11.30148696899414,20.383642196655273 C-11.30148696899414,20.383642196655273 3.736999988555908,95.0459976196289 3.736999988555908,95.0459976196289 C3.736999988555908,95.0459976196289 50.11899948120117,95.0459976196289 59.14400100708008,95.0459976196289 C67.44400024414062,80.29100036621094 41.18299865722656,67.625 41.18299865722656,67.625 C41.18299865722656,67.625 23.752487182617188,3.6245176792144775 23.71713638305664,3.4053709506988525 C23.685813903808594,3.2110936641693115 18.453908920288086,-1.2344608306884766 18.335304260253906,-1.3163225650787354 C18.163618087768555,-1.434836983680725 -30.577604293823242,-42.46133041381836 -30.577604293823242,-42.46133041381836"/></g></g></g><g transform="matrix(0.9994960427284241,0.03174317255616188,-0.03174317255616188,0.9994960427284241,156.72427368164062,142.84542846679688)" opacity="1" style="display: block;"><g opacity="1" transform="matrix(1,0,0,1,0,0)"><path stroke-linecap="round" stroke-linejoin="round" fill-opacity="0" stroke="rgb(18,19,49)" stroke-opacity="1" stroke-width="12" d=" M-14.255000114440918,24.08300018310547 C-14.255000114440918,24.08300018310547 4.230000019073486,32.020999908447266 4.230000019073486,32.020999908447266 C7.4120001792907715,33.38800048828125 11.133999824523926,31.902000427246094 12.50100040435791,28.719999313354492 C12.50100040435791,28.719999313354492 25.291000366210938,-1.062999963760376 25.291000366210938,-1.062999963760376 C29.860000610351562,-11.70199966430664 24.893999099731445,-24.145999908447266 14.255000114440918,-28.71500015258789 C14.255000114440918,-28.71500015258789 9.32800006866455,-30.829999923706055 9.32800006866455,-30.829999923706055 C-1.3109999895095825,-35.39899826049805 -13.753999710083008,-30.433000564575195 -18.322999954223633,-19.79400062561035 C-18.322999954223633,-19.79400062561035 -25.291000366210938,-3.569000005722046 -25.291000366210938,-3.569000005722046 C-29.860000610351562,7.070000171661377 -24.893999099731445,19.513999938964844 -14.255000114440918,24.08300018310547z"/></g></g><g transform="matrix(1,0,0,1,97.03600311279297,339.97601318359375)" opacity="1" style="display: block;"><g opacity="1" transform="matrix(1,0,0,1,0,0)"><path stroke-linecap="round" stroke-linejoin="round" fill-opacity="0" stroke="rgb(18,19,49)" stroke-opacity="1" stroke-width="12" d=" M-33.134952545166016,-59.8594970703125 C-33.134952545166016,-59.8594970703125 -16.644939422607422,12.928407669067383 -16.644939422607422,12.928407669067383 C-16.644939422607422,12.928407669067383 -62.145442962646484,69.80122375488281 -62.145442962646484,69.80122375488281 C-62.145442962646484,69.80122375488281 -20.723264694213867,99.60235595703125 -20.723264694213867,99.60235595703125 C-7.370718479156494,88.88638305664062 -19.57979965209961,70.05010986328125 -19.57979965209961,70.05010986328125 C-19.57979965209961,70.05010986328125 8.064314842224121,42.89114761352539 18.361589431762695,34.14837646484375 C26.107666015625,27.204092025756836 28.479616165161133,18.769710540771484 28.562923431396484,15.561634063720703 C28.94112777709961,-1.4766895771026611 26.245824813842773,-40.76197052001953 26.245824813842773,-40.76197052001953"/></g></g><g transform="matrix(0.9987455010414124,-0.05007421597838402,0.05007421597838402,0.9987455010414124,107.49962615966797,244.4612274169922)" opacity="1" style="display: block;"><g opacity="1" transform="matrix(1,0,0,1,0,0)"><path stroke-linecap="round" stroke-linejoin="round" fill-opacity="0" stroke="rgb(8,167,137)" stroke-opacity="1" stroke-width="12" d=" M13.319999694824219,57.77899932861328 C13.319999694824219,57.77899932861328 -46.18600082397461,32.2239990234375 -46.18600082397461,32.2239990234375 C-46.18600082397461,32.2239990234375 -15.956000328063965,-38.167999267578125 -15.956000328063965,-38.167999267578125 C-8.89900016784668,-54.599998474121094 10.142999649047852,-62.20100021362305 26.575000762939453,-55.14400100708008 C26.575000762939453,-55.14400100708008 26.575000762939453,-55.143001556396484 26.575000762939453,-55.143001556396484 C43.00699996948242,-48.08599853515625 50.606998443603516,-29.045000076293945 43.54999923706055,-12.61299991607666 C43.54999923706055,-12.61299991607666 13.319999694824219,57.77899932861328 13.319999694824219,57.77899932861328z"/></g></g><g transform="matrix(0.2923716902732849,-0.9563047289848328,0.9563047289848328,0.2923716902732849,-43.471832275390625,643.36962890625)" opacity="1" style="display: block;"><g opacity="1" transform="matrix(1,0,0,1,0,0)"><g opacity="1" transform="matrix(1,0,0,1,412.22601318359375,368.656005859375)"><path stroke-linecap="round" stroke-linejoin="round" fill-opacity="0" stroke="rgb(18,19,49)" stroke-opacity="1" stroke-width="12" d=" M14.22599983215332,49.63100051879883 C-0.984000027179718,59.95199966430664 -25.23200035095215,67.87100219726562 -43.395999908447266,67.94200134277344 C-53.446998596191406,67.98100280761719 -62.31100082397461,61.36399841308594 -65.21099853515625,51.74100112915039 C-65.21099853515625,51.74100112915039 -137.86099243164062,-189.35899353027344 -137.86099243164062,-189.35899353027344 C-140.76100158691406,-198.98199462890625 -137.0279998779297,-209.39500427246094 -128.62899780273438,-214.9149932861328 C-113.44999694824219,-224.89199829101562 -88.86399841308594,-231.68699645996094 -70.48400115966797,-231.48800659179688 C-60.625,-231.38099670410156 -52.029998779296875,-224.73599243164062 -49.18600082397461,-215.29600524902344 C-49.18600082397461,-215.29600524902344 23.0310001373291,24.368000030517578 23.0310001373291,24.368000030517578 C25.875,33.80799865722656 22.384000778198242,44.095001220703125 14.22599983215332,49.63100051879883z M-132.68099975585938,-172.16900634765625 C-132.68099975585938,-172.16900634765625 -98.88200378417969,-161.41799926757812 -98.88200378417969,-161.41799926757812 M-118.75299835205078,-125.94599914550781 C-118.75299835205078,-125.94599914550781 -84.9540023803711,-115.19499969482422 -84.9540023803711,-115.19499969482422 M-104.8239974975586,-79.72200012207031 C-104.8239974975586,-79.72200012207031 -71.0250015258789,-68.97100067138672 -71.0250015258789,-68.97100067138672 M-90.89600372314453,-33.499000549316406 C-90.89600372314453,-33.499000549316406 -57.09700012207031,-22.74799919128418 -57.09700012207031,-22.74799919128418 M-76.86000061035156,12.692000389099121 C-76.86000061035156,12.692000389099121 -43.06100082397461,23.44300079345703 -43.06100082397461,23.44300079345703 M-44.49100112915039,-198.7429962158203 C-44.49100112915039,-198.7429962158203 -66.7229995727539,-171.10899353027344 -66.7229995727539,-171.10899353027344 M-30.562000274658203,-152.52000427246094 C-30.562000274658203,-152.52000427246094 -52.79399871826172,-124.88500213623047 -52.79399871826172,-124.88500213623047 M-16.634000778198242,-106.2969970703125 C-16.634000778198242,-106.2969970703125 -38.86600112915039,-78.66200256347656 -38.86600112915039,-78.66200256347656 M-2.7049999237060547,-60.073001861572266 C-2.7049999237060547,-60.073001861572266 -24.937999725341797,-32.4379997253418 -24.937999725341797,-32.4379997253418 M11.116000175476074,-13.817000389099121 C11.116000175476074,-13.817000389099121 -11.116000175476074,13.817000389099121 -11.116000175476074,13.817000389099121"/></g></g></g></g></g><g transform="matrix(0.883901059627533,0.4676739275455475,-0.4676739275455475,0.883901059627533,126.37055206298828,283.9354248046875)" opacity="1" style="display: block;"><g opacity="1" transform="matrix(1,0,0,1,0,0)"><path stroke-linecap="round" stroke-linejoin="round" fill-opacity="0" stroke="rgb(8,167,137)" stroke-opacity="1" stroke-width="12" d=" M-22.81999969482422,-53.41899871826172 C-22.81999969482422,-53.41899871826172 9.612752914428711,-1.1185657978057861 9.612752914428711,-1.1185657978057861 C9.612752914428711,-1.1185657978057861 55.032447814941406,60.372379302978516 55.032447814941406,60.372379302978516 C55.032447814941406,60.372379302978516 42.79233169555664,80.9553451538086 22.584753036499023,67.73145294189453 C22.584753036499023,67.73145294189453 -18.542896270751953,11.878396034240723 -18.542896270751953,11.878396034240723 C-18.542896270751953,11.878396034240723 -58.4109992980957,-53.391998291015625 -58.4109992980957,-53.391998291015625"/></g></g></g></g><clipPath id="__lottie_element_57"><path d="M0,0 L500,0 L500,500 L0,500z"/></clipPath><mask id="__lottie_element_56_1" mask-type="alpha"><use xmlns:ns1="http://www.w3.org/1999/xlink" ns1:href="#__lottie_element_56"/></mask><clipPath id="__lottie_element_62"><path d="M0,0 L500,0 L500,500 L0,500z"/></clipPath><g id="__lottie_element_65"><g transform="matrix(0.883901059627533,0.4676739275455475,-0.4676739275455475,0.883901059627533,126.37055206298828,283.9354248046875)" opacity="1" style="display: block;"><g opacity="1" transform="matrix(1,0,0,1,0,0)"><path fill="rgb(255,255,255)" fill-opacity="1" d=" M-22.81999969482422,-53.41899871826172 C-22.81999969482422,-53.41899871826172 9.612752914428711,-1.1185657978057861 9.612752914428711,-1.1185657978057861 C9.612752914428711,-1.1185657978057861 55.032447814941406,60.372379302978516 55.032447814941406,60.372379302978516 C55.032447814941406,60.372379302978516 42.79233169555664,80.9553451538086 22.584753036499023,67.73145294189453 C22.584753036499023,67.73145294189453 -18.542896270751953,11.878396034240723 -18.542896270751953,11.878396034240723 C-18.542896270751953,11.878396034240723 -58.4109992980957,-53.391998291015625 -58.4109992980957,-53.391998291015625"/></g></g></g><filter id="__lottie_element_72" filterUnits="objectBoundingBox" x="0%" y="0%" width="100%" height="100%"><feComponentTransfer in="SourceGraphic"><feFuncA type="table" tableValues="1.0 0.0"/></feComponentTransfer></filter><mask id="__lottie_element_65_2" mask-type="alpha"><g filter="url(#__lottie_element_72)"><rect width="500" height="500" x="0" y="0" fill="#ffffff" opacity="0"/><use xmlns:ns2="http://www.w3.org/1999/xlink" ns2:href="#__lottie_element_65"/></g></mask><clipPath id="__lottie_element_74"><path d="M0,0 L500,0 L500,500 L0,500z"/></clipPath><g id="__lottie_element_77"><g clip-path="url(#__lottie_element_78)" transform="matrix(1,0,0,1,0,0)" opacity="1" style="display: block;"><g transform="matrix(1,0,0,1,97.03600311279297,339.97601318359375)" opacity="1" style="display: block;"><g opacity="1" transform="matrix(1,0,0,1,0,0)"><path stroke-linecap="round" stroke-linejoin="round" fill-opacity="0" stroke="rgb(18,19,49)" stroke-opacity="1" stroke-width="0" d=" M-33.134952545166016,-59.8594970703125 C-33.134952545166016,-59.8594970703125 -16.644939422607422,12.928407669067383 -16.644939422607422,12.928407669067383 C-16.644939422607422,12.928407669067383 -62.145442962646484,69.80122375488281 -62.145442962646484,69.80122375488281 C-62.145442962646484,69.80122375488281 -20.723264694213867,99.60235595703125 -20.723264694213867,99.60235595703125 C-7.370718479156494,88.88638305664062 -19.57979965209961,70.05010986328125 -19.57979965209961,70.05010986328125 C-19.57979965209961,70.05010986328125 8.064314842224121,42.89114761352539 18.361589431762695,34.14837646484375 C26.107666015625,27.204092025756836 28.479616165161133,18.769710540771484 28.562923431396484,15.561634063720703 C28.94112777709961,-1.4766895771026611 26.245824813842773,-40.76197052001953 26.245824813842773,-40.76197052001953"/><path fill="rgb(255,0,0)" fill-opacity="1" d=" M-33.134952545166016,-59.8594970703125 C-33.134952545166016,-59.8594970703125 -16.644939422607422,12.928407669067383 -16.644939422607422,12.928407669067383 C-16.644939422607422,12.928407669067383 -62.145442962646484,69.80122375488281 -62.145442962646484,69.80122375488281 C-62.145442962646484,69.80122375488281 -20.723264694213867,99.60235595703125 -20.723264694213867,99.60235595703125 C-7.370718479156494,88.88638305664062 -19.57979965209961,70.05010986328125 -19.57979965209961,70.05010986328125 C-19.57979965209961,70.05010986328125 8.064314842224121,42.89114761352539 18.361589431762695,34.14837646484375 C26.107666015625,27.204092025756836 28.479616165161133,18.769710540771484 28.562923431396484,15.561634063720703 C28.94112777709961,-1.4766895771026611 26.245824813842773,-40.76197052001953 26.245824813842773,-40.76197052001953"/></g></g><g transform="matrix(0.9987455010414124,-0.05007421597838402,0.05007421597838402,0.9987455010414124,107.49962615966797,244.4612274169922)" opacity="1" style="display: block;"><g opacity="1" transform="matrix(1,0,0,1,0,0)"><path stroke-linecap="round" stroke-linejoin="round" fill-opacity="0" stroke="rgb(8,167,137)" stroke-opacity="1" stroke-width="0" d=" M13.319999694824219,57.77899932861328 C13.319999694824219,57.77899932861328 -46.18600082397461,32.2239990234375 -46.18600082397461,32.2239990234375 C-46.18600082397461,32.2239990234375 -15.956000328063965,-38.167999267578125 -15.956000328063965,-38.167999267578125 C-8.89900016784668,-54.599998474121094 10.142999649047852,-62.20100021362305 26.575000762939453,-55.14400100708008 C26.575000762939453,-55.14400100708008 26.575000762939453,-55.143001556396484 26.575000762939453,-55.143001556396484 C43.00699996948242,-48.08599853515625 50.606998443603516,-29.045000076293945 43.54999923706055,-12.61299991607666 C43.54999923706055,-12.61299991607666 13.319999694824219,57.77899932861328 13.319999694824219,57.77899932861328z"/><path fill="rgb(255,0,0)" fill-opacity="1" d=" M13.319999694824219,57.77899932861328 C13.319999694824219,57.77899932861328 -46.18600082397461,32.2239990234375 -46.18600082397461,32.2239990234375 C-46.18600082397461,32.2239990234375 -15.956000328063965,-38.167999267578125 -15.956000328063965,-38.167999267578125 C-8.89900016784668,-54.599998474121094 10.142999649047852,-62.20100021362305 26.575000762939453,-55.14400100708008 C26.575000762939453,-55.14400100708008 26.575000762939453,-55.143001556396484 26.575000762939453,-55.143001556396484 C43.00699996948242,-48.08599853515625 50.606998443603516,-29.045000076293945 43.54999923706055,-12.61299991607666 C43.54999923706055,-12.61299991607666 13.319999694824219,57.77899932861328 13.319999694824219,57.77899932861328z"/></g></g><g transform="matrix(0.2923716902732849,-0.9563047289848328,0.9563047289848328,0.2923716902732849,-43.471832275390625,643.36962890625)" opacity="1" style="display: block;"><g opacity="1" transform="matrix(1,0,0,1,354.8139953613281,286.8810119628906)"><path stroke-linecap="round" stroke-linejoin="round" fill-opacity="0" stroke="rgb(18,19,49)" stroke-opacity="1" stroke-width="0" d=" M71.63800048828125,131.40699768066406 C56.428001403808594,141.72799682617188 32.18000030517578,149.64599609375 14.015999794006348,149.7169952392578 C3.9649999141693115,149.75599670410156 -4.8979997634887695,143.13900756835938 -7.797999858856201,133.51600646972656 C-7.797999858856201,133.51600646972656 -80.4489974975586,-107.58399963378906 -80.4489974975586,-107.58399963378906 C-83.3489990234375,-117.20700073242188 -79.61599731445312,-127.62000274658203 -71.21700286865234,-133.13999938964844 C-56.03799819946289,-143.11700439453125 -31.45199966430664,-149.91200256347656 -13.071999549865723,-149.71299743652344 C-3.2130000591278076,-149.6060028076172 5.381999969482422,-142.96099853515625 8.22599983215332,-133.52099609375 C8.22599983215332,-133.52099609375 80.44400024414062,106.14299774169922 80.44400024414062,106.14299774169922 C83.28800201416016,115.58300018310547 79.7959976196289,125.87100219726562 71.63800048828125,131.40699768066406z"/><path fill="rgb(255,0,0)" fill-opacity="1" d=" M71.63800048828125,131.40699768066406 C56.428001403808594,141.72799682617188 32.18000030517578,149.64599609375 14.015999794006348,149.7169952392578 C3.9649999141693115,149.75599670410156 -4.8979997634887695,143.13900756835938 -7.797999858856201,133.51600646972656 C-7.797999858856201,133.51600646972656 -80.4489974975586,-107.58399963378906 -80.4489974975586,-107.58399963378906 C-83.3489990234375,-117.20700073242188 -79.61599731445312,-127.62000274658203 -71.21700286865234,-133.13999938964844 C-56.03799819946289,-143.11700439453125 -31.45199966430664,-149.91200256347656 -13.071999549865723,-149.71299743652344 C-3.2130000591278076,-149.6060028076172 5.381999969482422,-142.96099853515625 8.22599983215332,-133.52099609375 C8.22599983215332,-133.52099609375 80.44400024414062,106.14299774169922 80.44400024414062,106.14299774169922 C83.28800201416016,115.58300018310547 79.7959976196289,125.87100219726562 71.63800048828125,131.40699768066406z"/></g><g opacity="1" transform="matrix(1,0,0,1,296.4440002441406,201.86300659179688)"><path stroke-linecap="round" stroke-linejoin="round" fill-opacity="0" stroke="rgb(18,19,49)" stroke-opacity="1" stroke-width="0" d=" M-16.899999618530273,-5.375 C-16.899999618530273,-5.375 16.899999618530273,5.375 16.899999618530273,5.375"/><path fill="rgb(255,0,0)" fill-opacity="1" d=" M-16.899999618530273,-5.375 C-16.899999618530273,-5.375 16.899999618530273,5.375 16.899999618530273,5.375"/></g><g opacity="1" transform="matrix(1,0,0,1,310.37298583984375,248.08599853515625)"><path stroke-linecap="round" stroke-linejoin="round" fill-opacity="0" stroke="rgb(18,19,49)" stroke-opacity="1" stroke-width="0" d=" M-16.899999618530273,-5.375 C-16.899999618530273,-5.375 16.899999618530273,5.375 16.899999618530273,5.375"/><path fill="rgb(255,0,0)" fill-opacity="1" d=" M-16.899999618530273,-5.375 C-16.899999618530273,-5.375 16.899999618530273,5.375 16.899999618530273,5.375"/></g><g opacity="1" transform="matrix(1,0,0,1,324.3009948730469,294.3089904785156)"><path stroke-linecap="round" stroke-linejoin="round" fill-opacity="0" stroke="rgb(18,19,49)" stroke-opacity="1" stroke-width="0" d=" M-16.899999618530273,-5.375 C-16.899999618530273,-5.375 16.899999618530273,5.375 16.899999618530273,5.375"/><path fill="rgb(255,0,0)" fill-opacity="1" d=" M-16.899999618530273,-5.375 C-16.899999618530273,-5.375 16.899999618530273,5.375 16.899999618530273,5.375"/></g><g opacity="1" transform="matrix(1,0,0,1,338.2300109863281,340.5329895019531)"><path stroke-linecap="round" stroke-linejoin="round" fill-opacity="0" stroke="rgb(18,19,49)" stroke-opacity="1" stroke-width="0" d=" M-16.899999618530273,-5.375 C-16.899999618530273,-5.375 16.899999618530273,5.375 16.899999618530273,5.375"/><path fill="rgb(255,0,0)" fill-opacity="1" d=" M-16.899999618530273,-5.375 C-16.899999618530273,-5.375 16.899999618530273,5.375 16.899999618530273,5.375"/></g><g opacity="1" transform="matrix(1,0,0,1,352.2650146484375,386.7239990234375)"><path stroke-linecap="round" stroke-linejoin="round" fill-opacity="0" stroke="rgb(18,19,49)" stroke-opacity="1" stroke-width="0" d=" M-16.899999618530273,-5.375 C-16.899999618530273,-5.375 16.899999618530273,5.375 16.899999618530273,5.375"/><path fill="rgb(255,0,0)" fill-opacity="1" d=" M-16.899999618530273,-5.375 C-16.899999618530273,-5.375 16.899999618530273,5.375 16.899999618530273,5.375"/></g><g opacity="1" transform="matrix(1,0,0,1,0,0)"><g opacity="1" transform="matrix(1,0,0,1,356.6189880371094,183.72999572753906)"><path stroke-linecap="round" stroke-linejoin="round" fill-opacity="0" stroke="rgb(18,19,49)" stroke-opacity="1" stroke-width="0" d=" M11.116000175476074,-13.817000389099121 C11.116000175476074,-13.817000389099121 -11.116000175476074,13.817000389099121 -11.116000175476074,13.817000389099121"/><path fill="rgb(255,0,0)" fill-opacity="1" d=" M11.116000175476074,-13.817000389099121 C11.116000175476074,-13.817000389099121 -11.116000175476074,13.817000389099121 -11.116000175476074,13.817000389099121"/></g><g opacity="1" transform="matrix(1,0,0,1,370.5480041503906,229.95399475097656)"><path stroke-linecap="round" stroke-linejoin="round" fill-opacity="0" stroke="rgb(18,19,49)" stroke-opacity="1" stroke-width="0" d=" M11.116000175476074,-13.817000389099121 C11.116000175476074,-13.817000389099121 -11.116000175476074,13.817000389099121 -11.116000175476074,13.817000389099121"/><path fill="rgb(255,0,0)" fill-opacity="1" d=" M11.116000175476074,-13.817000389099121 C11.116000175476074,-13.817000389099121 -11.116000175476074,13.817000389099121 -11.116000175476074,13.817000389099121"/></g><g opacity="1" transform="matrix(1,0,0,1,384.47601318359375,276.177001953125)"><path stroke-linecap="round" stroke-linejoin="round" fill-opacity="0" stroke="rgb(18,19,49)" stroke-opacity="1" stroke-width="0" d=" M11.116000175476074,-13.817000389099121 C11.116000175476074,-13.817000389099121 -11.116000175476074,13.817000389099121 -11.116000175476074,13.817000389099121"/><path fill="rgb(255,0,0)" fill-opacity="1" d=" M11.116000175476074,-13.817000389099121 C11.116000175476074,-13.817000389099121 -11.116000175476074,13.817000389099121 -11.116000175476074,13.817000389099121"/></g><g opacity="1" transform="matrix(1,0,0,1,398.4049987792969,322.3999938964844)"><path stroke-linecap="round" stroke-linejoin="round" fill-opacity="0" stroke="rgb(18,19,49)" stroke-opacity="1" stroke-width="0" d=" M11.116000175476074,-13.817000389099121 C11.116000175476074,-13.817000389099121 -11.116000175476074,13.817000389099121 -11.116000175476074,13.817000389099121"/><path fill="rgb(255,0,0)" fill-opacity="1" d=" M11.116000175476074,-13.817000389099121 C11.116000175476074,-13.817000389099121 -11.116000175476074,13.817000389099121 -11.116000175476074,13.817000389099121"/></g><g opacity="1" transform="matrix(1,0,0,1,412.22601318359375,368.656005859375)"><path stroke-linecap="round" stroke-linejoin="round" fill-opacity="0" stroke="rgb(18,19,49)" stroke-opacity="1" stroke-width="0" d=" M11.116000175476074,-13.817000389099121 C11.116000175476074,-13.817000389099121 -11.116000175476074,13.817000389099121 -11.116000175476074,13.817000389099121"/><path fill="rgb(255,0,0)" fill-opacity="1" d=" M11.116000175476074,-13.817000389099121 C11.116000175476074,-13.817000389099121 -11.116000175476074,13.817000389099121 -11.116000175476074,13.817000389099121"/></g></g></g></g></g><clipPath id="__lottie_element_78"><path d="M0,0 L500,0 L500,500 L0,500z"/></clipPath><g id="__lottie_element_84"><g clip-path="url(#__lottie_element_85)" transform="matrix(1,0,0,1,0,0)" opacity="1" style="display: block;"><g transform="matrix(1,0,0,1,97.03600311279297,339.97601318359375)" opacity="1" style="display: block;"><g opacity="1" transform="matrix(1,0,0,1,0,0)"><path stroke-linecap="round" stroke-linejoin="round" fill-opacity="0" stroke="rgb(18,19,49)" stroke-opacity="1" stroke-width="0" d=" M-33.134952545166016,-59.8594970703125 C-33.134952545166016,-59.8594970703125 -16.644939422607422,12.928407669067383 -16.644939422607422,12.928407669067383 C-16.644939422607422,12.928407669067383 -62.145442962646484,69.80122375488281 -62.145442962646484,69.80122375488281 C-62.145442962646484,69.80122375488281 -20.723264694213867,99.60235595703125 -20.723264694213867,99.60235595703125 C-7.370718479156494,88.88638305664062 -19.57979965209961,70.05010986328125 -19.57979965209961,70.05010986328125 C-19.57979965209961,70.05010986328125 8.064314842224121,42.89114761352539 18.361589431762695,34.14837646484375 C26.107666015625,27.204092025756836 28.479616165161133,18.769710540771484 28.562923431396484,15.561634063720703 C28.94112777709961,-1.4766895771026611 26.245824813842773,-40.76197052001953 26.245824813842773,-40.76197052001953"/><path fill="rgb(255,0,0)" fill-opacity="1" d=" M-33.134952545166016,-59.8594970703125 C-33.134952545166016,-59.8594970703125 -16.644939422607422,12.928407669067383 -16.644939422607422,12.928407669067383 C-16.644939422607422,12.928407669067383 -62.145442962646484,69.80122375488281 -62.145442962646484,69.80122375488281 C-62.145442962646484,69.80122375488281 -20.723264694213867,99.60235595703125 -20.723264694213867,99.60235595703125 C-7.370718479156494,88.88638305664062 -19.57979965209961,70.05010986328125 -19.57979965209961,70.05010986328125 C-19.57979965209961,70.05010986328125 8.064314842224121,42.89114761352539 18.361589431762695,34.14837646484375 C26.107666015625,27.204092025756836 28.479616165161133,18.769710540771484 28.562923431396484,15.561634063720703 C28.94112777709961,-1.4766895771026611 26.245824813842773,-40.76197052001953 26.245824813842773,-40.76197052001953"/></g></g><g transform="matrix(0.9987455010414124,-0.05007421597838402,0.05007421597838402,0.9987455010414124,107.49962615966797,244.4612274169922)" opacity="1" style="display: block;"><g opacity="1" transform="matrix(1,0,0,1,0,0)"><path stroke-linecap="round" stroke-linejoin="round" fill-opacity="0" stroke="rgb(8,167,137)" stroke-opacity="1" stroke-width="0" d=" M13.319999694824219,57.77899932861328 C13.319999694824219,57.77899932861328 -46.18600082397461,32.2239990234375 -46.18600082397461,32.2239990234375 C-46.18600082397461,32.2239990234375 -15.956000328063965,-38.167999267578125 -15.956000328063965,-38.167999267578125 C-8.89900016784668,-54.599998474121094 10.142999649047852,-62.20100021362305 26.575000762939453,-55.14400100708008 C26.575000762939453,-55.14400100708008 26.575000762939453,-55.143001556396484 26.575000762939453,-55.143001556396484 C43.00699996948242,-48.08599853515625 50.606998443603516,-29.045000076293945 43.54999923706055,-12.61299991607666 C43.54999923706055,-12.61299991607666 13.319999694824219,57.77899932861328 13.319999694824219,57.77899932861328z"/><path fill="rgb(255,0,0)" fill-opacity="1" d=" M13.319999694824219,57.77899932861328 C13.319999694824219,57.77899932861328 -46.18600082397461,32.2239990234375 -46.18600082397461,32.2239990234375 C-46.18600082397461,32.2239990234375 -15.956000328063965,-38.167999267578125 -15.956000328063965,-38.167999267578125 C-8.89900016784668,-54.599998474121094 10.142999649047852,-62.20100021362305 26.575000762939453,-55.14400100708008 C26.575000762939453,-55.14400100708008 26.575000762939453,-55.143001556396484 26.575000762939453,-55.143001556396484 C43.00699996948242,-48.08599853515625 50.606998443603516,-29.045000076293945 43.54999923706055,-12.61299991607666 C43.54999923706055,-12.61299991607666 13.319999694824219,57.77899932861328 13.319999694824219,57.77899932861328z"/></g></g><g transform="matrix(0.2923716902732849,-0.9563047289848328,0.9563047289848328,0.2923716902732849,-43.471832275390625,643.36962890625)" opacity="1" style="display: block;"><g opacity="1" transform="matrix(1,0,0,1,354.8139953613281,286.8810119628906)"><path stroke-linecap="round" stroke-linejoin="round" fill-opacity="0" stroke="rgb(18,19,49)" stroke-opacity="1" stroke-width="0" d=" M71.63800048828125,131.40699768066406 C56.428001403808594,141.72799682617188 32.18000030517578,149.64599609375 14.015999794006348,149.7169952392578 C3.9649999141693115,149.75599670410156 -4.8979997634887695,143.13900756835938 -7.797999858856201,133.51600646972656 C-7.797999858856201,133.51600646972656 -80.4489974975586,-107.58399963378906 -80.4489974975586,-107.58399963378906 C-83.3489990234375,-117.20700073242188 -79.61599731445312,-127.62000274658203 -71.21700286865234,-133.13999938964844 C-56.03799819946289,-143.11700439453125 -31.45199966430664,-149.91200256347656 -13.071999549865723,-149.71299743652344 C-3.2130000591278076,-149.6060028076172 5.381999969482422,-142.96099853515625 8.22599983215332,-133.52099609375 C8.22599983215332,-133.52099609375 80.44400024414062,106.14299774169922 80.44400024414062,106.14299774169922 C83.28800201416016,115.58300018310547 79.7959976196289,125.87100219726562 71.63800048828125,131.40699768066406z"/><path fill="rgb(255,0,0)" fill-opacity="1" d=" M71.63800048828125,131.40699768066406 C56.428001403808594,141.72799682617188 32.18000030517578,149.64599609375 14.015999794006348,149.7169952392578 C3.9649999141693115,149.75599670410156 -4.8979997634887695,143.13900756835938 -7.797999858856201,133.51600646972656 C-7.797999858856201,133.51600646972656 -80.4489974975586,-107.58399963378906 -80.4489974975586,-107.58399963378906 C-83.3489990234375,-117.20700073242188 -79.61599731445312,-127.62000274658203 -71.21700286865234,-133.13999938964844 C-56.03799819946289,-143.11700439453125 -31.45199966430664,-149.91200256347656 -13.071999549865723,-149.71299743652344 C-3.2130000591278076,-149.6060028076172 5.381999969482422,-142.96099853515625 8.22599983215332,-133.52099609375 C8.22599983215332,-133.52099609375 80.44400024414062,106.14299774169922 80.44400024414062,106.14299774169922 C83.28800201416016,115.58300018310547 79.7959976196289,125.87100219726562 71.63800048828125,131.40699768066406z"/></g><g opacity="1" transform="matrix(1,0,0,1,296.4440002441406,201.86300659179688)"><path stroke-linecap="round" stroke-linejoin="round" fill-opacity="0" stroke="rgb(18,19,49)" stroke-opacity="1" stroke-width="0" d=" M-16.899999618530273,-5.375 C-16.899999618530273,-5.375 16.899999618530273,5.375 16.899999618530273,5.375"/><path fill="rgb(255,0,0)" fill-opacity="1" d=" M-16.899999618530273,-5.375 C-16.899999618530273,-5.375 16.899999618530273,5.375 16.899999618530273,5.375"/></g><g opacity="1" transform="matrix(1,0,0,1,310.37298583984375,248.08599853515625)"><path stroke-linecap="round" stroke-linejoin="round" fill-opacity="0" stroke="rgb(18,19,49)" stroke-opacity="1" stroke-width="0" d=" M-16.899999618530273,-5.375 C-16.899999618530273,-5.375 16.899999618530273,5.375 16.899999618530273,5.375"/><path fill="rgb(255,0,0)" fill-opacity="1" d=" M-16.899999618530273,-5.375 C-16.899999618530273,-5.375 16.899999618530273,5.375 16.899999618530273,5.375"/></g><g opacity="1" transform="matrix(1,0,0,1,324.3009948730469,294.3089904785156)"><path stroke-linecap="round" stroke-linejoin="round" fill-opacity="0" stroke="rgb(18,19,49)" stroke-opacity="1" stroke-width="0" d=" M-16.899999618530273,-5.375 C-16.899999618530273,-5.375 16.899999618530273,5.375 16.899999618530273,5.375"/><path fill="rgb(255,0,0)" fill-opacity="1" d=" M-16.899999618530273,-5.375 C-16.899999618530273,-5.375 16.899999618530273,5.375 16.899999618530273,5.375"/></g><g opacity="1" transform="matrix(1,0,0,1,338.2300109863281,340.5329895019531)"><path stroke-linecap="round" stroke-linejoin="round" fill-opacity="0" stroke="rgb(18,19,49)" stroke-opacity="1" stroke-width="0" d=" M-16.899999618530273,-5.375 C-16.899999618530273,-5.375 16.899999618530273,5.375 16.899999618530273,5.375"/><path fill="rgb(255,0,0)" fill-opacity="1" d=" M-16.899999618530273,-5.375 C-16.899999618530273,-5.375 16.899999618530273,5.375 16.899999618530273,5.375"/></g><g opacity="1" transform="matrix(1,0,0,1,352.2650146484375,386.7239990234375)"><path stroke-linecap="round" stroke-linejoin="round" fill-opacity="0" stroke="rgb(18,19,49)" stroke-opacity="1" stroke-width="0" d=" M-16.899999618530273,-5.375 C-16.899999618530273,-5.375 16.899999618530273,5.375 16.899999618530273,5.375"/><path fill="rgb(255,0,0)" fill-opacity="1" d=" M-16.899999618530273,-5.375 C-16.899999618530273,-5.375 16.899999618530273,5.375 16.899999618530273,5.375"/></g><g opacity="1" transform="matrix(1,0,0,1,0,0)"><g opacity="1" transform="matrix(1,0,0,1,356.6189880371094,183.72999572753906)"><path stroke-linecap="round" stroke-linejoin="round" fill-opacity="0" stroke="rgb(18,19,49)" stroke-opacity="1" stroke-width="0" d=" M11.116000175476074,-13.817000389099121 C11.116000175476074,-13.817000389099121 -11.116000175476074,13.817000389099121 -11.116000175476074,13.817000389099121"/><path fill="rgb(255,0,0)" fill-opacity="1" d=" M11.116000175476074,-13.817000389099121 C11.116000175476074,-13.817000389099121 -11.116000175476074,13.817000389099121 -11.116000175476074,13.817000389099121"/></g><g opacity="1" transform="matrix(1,0,0,1,370.5480041503906,229.95399475097656)"><path stroke-linecap="round" stroke-linejoin="round" fill-opacity="0" stroke="rgb(18,19,49)" stroke-opacity="1" stroke-width="0" d=" M11.116000175476074,-13.817000389099121 C11.116000175476074,-13.817000389099121 -11.116000175476074,13.817000389099121 -11.116000175476074,13.817000389099121"/><path fill="rgb(255,0,0)" fill-opacity="1" d=" M11.116000175476074,-13.817000389099121 C11.116000175476074,-13.817000389099121 -11.116000175476074,13.817000389099121 -11.116000175476074,13.817000389099121"/></g><g opacity="1" transform="matrix(1,0,0,1,384.47601318359375,276.177001953125)"><path stroke-linecap="round" stroke-linejoin="round" fill-opacity="0" stroke="rgb(18,19,49)" stroke-opacity="1" stroke-width="0" d=" M11.116000175476074,-13.817000389099121 C11.116000175476074,-13.817000389099121 -11.116000175476074,13.817000389099121 -11.116000175476074,13.817000389099121"/><path fill="rgb(255,0,0)" fill-opacity="1" d=" M11.116000175476074,-13.817000389099121 C11.116000175476074,-13.817000389099121 -11.116000175476074,13.817000389099121 -11.116000175476074,13.817000389099121"/></g><g opacity="1" transform="matrix(1,0,0,1,398.4049987792969,322.3999938964844)"><path stroke-linecap="round" stroke-linejoin="round" fill-opacity="0" stroke="rgb(18,19,49)" stroke-opacity="1" stroke-width="0" d=" M11.116000175476074,-13.817000389099121 C11.116000175476074,-13.817000389099121 -11.116000175476074,13.817000389099121 -11.116000175476074,13.817000389099121"/><path fill="rgb(255,0,0)" fill-opacity="1" d=" M11.116000175476074,-13.817000389099121 C11.116000175476074,-13.817000389099121 -11.116000175476074,13.817000389099121 -11.116000175476074,13.817000389099121"/></g><g opacity="1" transform="matrix(1,0,0,1,412.22601318359375,368.656005859375)"><path stroke-linecap="round" stroke-linejoin="round" fill-opacity="0" stroke="rgb(18,19,49)" stroke-opacity="1" stroke-width="0" d=" M11.116000175476074,-13.817000389099121 C11.116000175476074,-13.817000389099121 -11.116000175476074,13.817000389099121 -11.116000175476074,13.817000389099121"/><path fill="rgb(255,0,0)" fill-opacity="1" d=" M11.116000175476074,-13.817000389099121 C11.116000175476074,-13.817000389099121 -11.116000175476074,13.817000389099121 -11.116000175476074,13.817000389099121"/></g></g></g></g></g><clipPath id="__lottie_element_85"><path d="M0,0 L500,0 L500,500 L0,500z"/></clipPath><filter id="__lottie_element_101" filterUnits="objectBoundingBox" x="0%" y="0%" width="100%" height="100%"><feComponentTransfer in="SourceGraphic"><feFuncA type="table" tableValues="1.0 0.0"/></feComponentTransfer></filter><mask id="__lottie_element_84_2" mask-type="alpha"><g filter="url(#__lottie_element_101)"><rect width="500" height="500" x="0" y="0" fill="#ffffff" opacity="0"/><use xmlns:ns3="http://www.w3.org/1999/xlink" ns3:href="#__lottie_element_84"/></g></mask><filter id="__lottie_element_102" filterUnits="objectBoundingBox" x="0%" y="0%" width="100%" height="100%"><feComponentTransfer in="SourceGraphic"><feFuncA type="table" tableValues="1.0 0.0"/></feComponentTransfer></filter><mask id="__lottie_element_77_2" mask-type="alpha"><g filter="url(#__lottie_element_102)"><rect width="500" height="500" x="0" y="0" fill="#ffffff" opacity="0"/><use xmlns:ns4="http://www.w3.org/1999/xlink" ns4:href="#__lottie_element_77"/></g></mask><g id="__lottie_element_109"><g transform="matrix(1,0,0,1,155.22900390625,339.1919860839844)" opacity="1" style="display: block;"><g opacity="1" transform="matrix(1,0,0,1,0,0)"><path fill="rgb(255,0,0)" fill-opacity="1" d=" M-89.25814056396484,-58.819725036621094 C-70.54808044433594,-0.160084530711174 -11.30148696899414,20.383642196655273 -11.30148696899414,20.383642196655273 C-11.30148696899414,20.383642196655273 3.736999988555908,95.0459976196289 3.736999988555908,95.0459976196289 C3.736999988555908,95.0459976196289 50.11899948120117,95.0459976196289 59.14400100708008,95.0459976196289 C67.44400024414062,80.29100036621094 41.18299865722656,67.625 41.18299865722656,67.625 C41.18299865722656,67.625 23.752487182617188,3.6245176792144775 23.71713638305664,3.4053709506988525 C23.685813903808594,3.2110936641693115 18.453908920288086,-1.2344608306884766 18.335304260253906,-1.3163225650787354 C18.163618087768555,-1.434836983680725 -30.577604293823242,-42.46133041381836 -30.577604293823242,-42.46133041381836"/></g></g></g><filter id="__lottie_element_112" filterUnits="objectBoundingBox" x="0%" y="0%" width="100%" height="100%"><feComponentTransfer in="SourceGraphic"><feFuncA type="table" tableValues="1.0 0.0"/></feComponentTransfer></filter><mask id="__lottie_element_109_2" mask-type="alpha"><g filter="url(#__lottie_element_112)"><rect width="500" height="500" x="0" y="0" fill="#ffffff" opacity="0"/><use xmlns:ns5="http://www.w3.org/1999/xlink" ns5:href="#__lottie_element_109"/></g></mask></defs><g clip-path="url(#__lottie_element_51)"><g mask="url(#__lottie_element_56_1)" style="display: block;"><g filter="url(#__lottie_element_55)" transform="matrix(-1.5218541622161865,1.8557910919189453,-1.8557910919189453,-1.5218541622161865,271.9410095214844,270.4599914550781)" opacity="1"><g class="design" opacity="1" transform="matrix(1,0,0,1,0,0)"><path fill="rgb(75,225,236)" fill-opacity="1" d=" M0,-250 C137.97500610351562,-250 250,-137.97500610351562 250,0 C250,137.97500610351562 137.97500610351562,250 0,250 C-137.97500610351562,250 -250,137.97500610351562 -250,0 C-250,-137.97500610351562 -137.97500610351562,-250 0,-250z"/></g><g class="design" opacity="1" transform="matrix(1,0,0,1,113.24199676513672,-118.88400268554688)"><path fill="rgb(203,94,238)" fill-opacity="1" d=" M0,-176.5 C97.41034698486328,-176.5 176.5,-97.41034698486328 176.5,0 C176.5,97.41034698486328 97.41034698486328,176.5 0,176.5 C-97.41034698486328,176.5 -176.5,97.41034698486328 -176.5,0 C-176.5,-97.41034698486328 -97.41034698486328,-176.5 0,-176.5z"/></g></g></g><g transform="matrix(2.65159010887146,0,0,2.65159010887146,37.9818115234375,480.39056396484375)" opacity="0.2" style="display: none;"><path fill="rgb(0,0,0)" fill-opacity="1" d=" M141.6959991455078,0 C141.6959991455078,0 144.6699981689453,0 144.6699981689453,0 C144.6699981689453,0 144.6699981689453,-12.715999603271484 144.6699981689453,-12.715999603271484 C144.6699981689453,-12.715999603271484 148.62899780273438,0 148.62899780273438,0 C148.62899780273438,0 151.25399780273438,0 151.25399780273438,0 C151.25399780273438,0 155.2949981689453,-12.715999603271484 155.2949981689453,-12.715999603271484 C155.2949981689453,-12.715999603271484 155.2949981689453,0 155.2949981689453,0 C155.2949981689453,0 158.4530029296875,0 158.4530029296875,0 C158.4530029296875,0 158.4530029296875,-14.829000473022461 158.4530029296875,-14.829000473022461 C158.4530029296875,-14.829000473022461 153.4080047607422,-14.829000473022461 153.4080047607422,-14.829000473022461 C153.4080047607422,-14.829000473022461 150.0240020751953,-4.040999889373779 150.0240020751953,-4.040999889373779 C150.0240020751953,-4.040999889373779 146.88499450683594,-14.829000473022461 146.88499450683594,-14.829000473022461 C146.88499450683594,-14.829000473022461 141.6959991455078,-14.829000473022461 141.6959991455078,-14.829000473022461 C141.6959991455078,-14.829000473022461 141.6959991455078,0 141.6959991455078,0z M128.80499267578125,-7.302000045776367 C128.80499267578125,-8.984000205993652 129.05099487304688,-10.583000183105469 129.89199829101562,-11.609000205993652 C130.48699951171875,-12.368000030517578 131.42999267578125,-12.859999656677246 132.6199951171875,-12.859999656677246 C134.13800048828125,-12.859999656677246 135.38900756835938,-12.0600004196167 136.00399780273438,-10.234999656677246 C136.31199645996094,-9.333000183105469 136.3730010986328,-8.307000160217285 136.3730010986328,-7.589000225067139 C136.3730010986328,-5.230000019073486 135.86000061035156,-4.080999851226807 135.3679962158203,-3.3429999351501465 C134.7729949951172,-2.4200000762939453 133.89100646972656,-1.968999981880188 132.5989990234375,-1.968999981880188 C131.1219940185547,-1.968999981880188 130.36300659179688,-2.5439999103546143 129.91200256347656,-3.1589999198913574 C129.02999877929688,-4.308000087738037 128.80499267578125,-5.88700008392334 128.80499267578125,-7.302000045776367z M125.48200225830078,-7.198999881744385 C125.48200225830078,-5.84499979019165 125.68800354003906,-3.384000062942505 127.30799865722656,-1.6610000133514404 C128.66200256347656,-0.2460000067949295 130.60899353027344,0.36899998784065247 132.55799865722656,0.36899998784065247 C133.78900146484375,0.36899998784065247 136.18800354003906,0.10300000011920929 137.82899475097656,-1.7430000305175781 C139.03900146484375,-3.0969998836517334 139.6959991455078,-5.394000053405762 139.6959991455078,-7.547999858856201 C139.6959991455078,-9.003999710083008 139.38800048828125,-11.321999549865723 137.8090057373047,-13.126999855041504 C136.35299682617188,-14.767999649047852 134.17799377441406,-15.13700008392334 132.5989990234375,-15.13700008392334 C127.26599884033203,-15.13700008392334 125.48200225830078,-11.13700008392334 125.48200225830078,-7.198999881744385z M124.04000091552734,-9.98900032043457 C124.04000091552734,-12.942999839782715 121.76399993896484,-14.91100025177002 118.52300262451172,-14.91100025177002 C114.35900115966797,-14.91100025177002 111.73400115966797,-11.793999671936035 111.73400115966797,-7.0970001220703125 C111.73400115966797,-3.4260001182556152 113.3949966430664,0.3490000069141388 118.50199890136719,0.3490000069141388 C119.85600280761719,0.3490000069141388 121.51699829101562,0.04100000113248825 122.83000183105469,-1.312999963760376 C124.0199966430664,-2.5439999103546143 124.10099792480469,-3.9170000553131104 124.16300201416016,-4.798999786376953 C124.16300201416016,-4.798999786376953 120.81999969482422,-4.798999786376953 120.81999969482422,-4.798999786376953 C120.75800323486328,-2.8299999237060547 119.48699951171875,-1.9900000095367432 118.15399932861328,-1.9900000095367432 C115.05699920654297,-1.9900000095367432 115.05699920654297,-6.193999767303467 115.05699920654297,-7.076000213623047 C115.05699920654297,-10.131999969482422 116.04100036621094,-12.593000411987305 118.4000015258789,-12.593000411987305 C120.55400085449219,-12.593000411987305 120.73799896240234,-10.501999855041504 120.80000305175781,-9.98900032043457 C120.80000305175781,-9.98900032043457 124.04000091552734,-9.98900032043457 124.04000091552734,-9.98900032043457z M106.89299774169922,0 C106.89299774169922,0 109.49700164794922,0 109.49700164794922,0 C109.49700164794922,0 109.49700164794922,-2.7279999256134033 109.49700164794922,-2.7279999256134033 C109.49700164794922,-2.7279999256134033 106.89299774169922,-2.7279999256134033 106.89299774169922,-2.7279999256134033 C106.89299774169922,-2.7279999256134033 106.89299774169922,0 106.89299774169922,0z M91.00700378417969,0 C91.00700378417969,0 94.0009994506836,0 94.0009994506836,0 C94.0009994506836,0 94.0009994506836,-12.305999755859375 94.0009994506836,-12.305999755859375 C94.0009994506836,-12.305999755859375 99.74400329589844,0 99.74400329589844,0 C99.74400329589844,0 104.11299896240234,0 104.11299896240234,0 C104.11299896240234,0 104.11299896240234,-14.829000473022461 104.11299896240234,-14.829000473022461 C104.11299896240234,-14.829000473022461 101.15899658203125,-14.829000473022461 101.15899658203125,-14.829000473022461 C101.15899658203125,-14.829000473022461 101.15899658203125,-3.1589999198913574 101.15899658203125,-3.1589999198913574 C101.15899658203125,-3.1589999198913574 95.60099792480469,-14.829000473022461 95.60099792480469,-14.829000473022461 C95.60099792480469,-14.829000473022461 91.00700378417969,-14.829000473022461 91.00700378417969,-14.829000473022461 C91.00700378417969,-14.829000473022461 91.00700378417969,0 91.00700378417969,0z M77.86900329589844,-7.302000045776367 C77.86900329589844,-8.984000205993652 78.11499786376953,-10.583000183105469 78.95600128173828,-11.609000205993652 C79.5510025024414,-12.368000030517578 80.49400329589844,-12.859999656677246 81.68399810791016,-12.859999656677246 C83.2020034790039,-12.859999656677246 84.4530029296875,-12.0600004196167 85.06800079345703,-10.234999656677246 C85.3759994506836,-9.333000183105469 85.43699645996094,-8.307000160217285 85.43699645996094,-7.589000225067139 C85.43699645996094,-5.230000019073486 84.92400360107422,-4.080999851226807 84.43199920654297,-3.3429999351501465 C83.83699798583984,-2.4200000762939453 82.95500183105469,-1.968999981880188 81.66300201416016,-1.968999981880188 C80.18599700927734,-1.968999981880188 79.4280014038086,-2.5439999103546143 78.97699737548828,-3.1589999198913574 C78.09500122070312,-4.308000087738037 77.86900329589844,-5.88700008392334 77.86900329589844,-7.302000045776367z M74.5459976196289,-7.198999881744385 C74.5459976196289,-5.84499979019165 74.75199890136719,-3.384000062942505 76.37200164794922,-1.6610000133514404 C77.72599792480469,-0.2460000067949295 79.6729965209961,0.36899998784065247 81.62200164794922,0.36899998784065247 C82.85299682617188,0.36899998784065247 85.25299835205078,0.10300000011920929 86.89399719238281,-1.7430000305175781 C88.10399627685547,-3.0969998836517334 88.76000213623047,-5.394000053405762 88.76000213623047,-7.547999858856201 C88.76000213623047,-9.003999710083008 88.4520034790039,-11.321999549865723 86.87300109863281,-13.126999855041504 C85.41699981689453,-14.767999649047852 83.24199676513672,-15.13700008392334 81.66300201416016,-15.13700008392334 C76.33000183105469,-15.13700008392334 74.5459976196289,-11.13700008392334 74.5459976196289,-7.198999881744385z M73.10399627685547,-9.98900032043457 C73.10399627685547,-12.942999839782715 70.8280029296875,-14.91100025177002 67.58699798583984,-14.91100025177002 C63.42300033569336,-14.91100025177002 60.79800033569336,-11.793999671936035 60.79800033569336,-7.0970001220703125 C60.79800033569336,-3.4260001182556152 62.45899963378906,0.3490000069141388 67.56600189208984,0.3490000069141388 C68.91999816894531,0.3490000069141388 70.58100128173828,0.04100000113248825 71.89399719238281,-1.312999963760376 C73.08399963378906,-2.5439999103546143 73.16500091552734,-3.9170000553131104 73.22699737548828,-4.798999786376953 C73.22699737548828,-4.798999786376953 69.88400268554688,-4.798999786376953 69.88400268554688,-4.798999786376953 C69.8219985961914,-2.8299999237060547 68.5510025024414,-1.9900000095367432 67.21800231933594,-1.9900000095367432 C64.12100219726562,-1.9900000095367432 64.12100219726562,-6.193999767303467 64.12100219726562,-7.076000213623047 C64.12100219726562,-10.131999969482422 65.1050033569336,-12.593000411987305 67.46399688720703,-12.593000411987305 C69.61799621582031,-12.593000411987305 69.802001953125,-10.501999855041504 69.86399841308594,-9.98900032043457 C69.86399841308594,-9.98900032043457 73.10399627685547,-9.98900032043457 73.10399627685547,-9.98900032043457z M55.66899871826172,0 C55.66899871826172,0 58.8489990234375,0 58.8489990234375,0 C58.8489990234375,0 58.8489990234375,-14.869999885559082 58.8489990234375,-14.869999885559082 C58.8489990234375,-14.869999885559082 55.66899871826172,-14.869999885559082 55.66899871826172,-14.869999885559082 C55.66899871826172,-14.869999885559082 55.66899871826172,0 55.66899871826172,0z M44.28799819946289,-12.387999534606934 C46.112998962402344,-12.470000267028809 46.95500183105469,-12.368000030517578 47.611000061035156,-12.182999610900879 C49.60100173950195,-11.628999710083008 50.31800079345703,-9.701000213623047 50.31800079345703,-7.609000205993652 C50.31800079345703,-6.890999794006348 50.236000061035156,-4.676000118255615 48.98500061035156,-3.424999952316284 C48.0620002746582,-2.502000093460083 46.893001556396484,-2.4000000953674316 45.53900146484375,-2.4000000953674316 C45.16999816894531,-2.4000000953674316 44.637001037597656,-2.4200000762939453 44.28799819946289,-2.440999984741211 C44.28799819946289,-2.440999984741211 44.28799819946289,-12.387999534606934 44.28799819946289,-12.387999534606934z M41.06800079345703,0 C41.06800079345703,0 45.68299865722656,0 45.68299865722656,0 C47.18000030517578,0 47.79499816894531,-0.061000000685453415 48.3489990234375,-0.164000004529953 C51.159000396728516,-0.6769999861717224 53.599998474121094,-3.055999994277954 53.599998474121094,-7.609000205993652 C53.599998474121094,-9.722000122070312 52.94300079345703,-12.0600004196167 51.07699966430664,-13.434000015258789 C49.292999267578125,-14.746999740600586 46.790000915527344,-14.767999649047852 45.970001220703125,-14.767999649047852 C45.970001220703125,-14.767999649047852 41.06800079345703,-14.788000106811523 41.06800079345703,-14.788000106811523 C41.06800079345703,-14.788000106811523 41.06800079345703,0 41.06800079345703,0z M30.518999099731445,-12.491000175476074 C30.518999099731445,-12.491000175476074 32.652000427246094,-12.491000175476074 32.652000427246094,-12.491000175476074 C33.65700149536133,-12.491000175476074 34.25199890136719,-12.491000175476074 34.74399948120117,-12.142000198364258 C35.03099822998047,-11.956999778747559 35.52399826049805,-11.486000061035156 35.52399826049805,-10.480999946594238 C35.52399826049805,-9.4350004196167 34.92900085449219,-8.92199993133545 34.702999114990234,-8.758000373840332 C34.189998626708984,-8.347999572753906 33.45199966430664,-8.347999572753906 33.08300018310547,-8.347999572753906 C33.08300018310547,-8.347999572753906 30.518999099731445,-8.347999572753906 30.518999099731445,-8.347999572753906 C30.518999099731445,-8.347999572753906 30.518999099731445,-12.491000175476074 30.518999099731445,-12.491000175476074z M27.381000518798828,0 C27.381000518798828,0 30.621999740600586,0 30.621999740600586,0 C30.621999740600586,0 30.621999740600586,-5.988999843597412 30.621999740600586,-5.988999843597412 C30.621999740600586,-5.988999843597412 33.4109992980957,-5.988999843597412 33.4109992980957,-5.988999843597412 C33.944000244140625,-5.988999843597412 34.7239990234375,-5.988999843597412 35.01100158691406,-5.1479997634887695 C35.215999603271484,-4.573999881744385 35.66699981689453,-0.8199999928474426 35.81100082397461,0 C35.81100082397461,0 39.31800079345703,0 39.31800079345703,0 C39.15399932861328,-0.2460000067949295 39.03099822998047,-0.41100001335144043 38.867000579833984,-1.0670000314712524 C38.763999938964844,-1.4769999980926514 38.641998291015625,-2.194999933242798 38.41600036621094,-3.937999963760376 C38.14899826049805,-5.866000175476074 37.98500061035156,-7.138000011444092 35.749000549316406,-7.3429999351501465 C36.46699905395508,-7.547999858856201 38.84700012207031,-8.204000473022461 38.84700012207031,-10.972999572753906 C38.84700012207031,-11.937000274658203 38.47700119018555,-13.02400016784668 37.55400085449219,-13.824000358581543 C36.36399841308594,-14.850000381469727 34.70399856567383,-14.850000381469727 33.0629997253418,-14.829000473022461 C33.0629997253418,-14.829000473022461 27.381000518798828,-14.829000473022461 27.381000518798828,-14.829000473022461 C27.381000518798828,-14.829000473022461 27.381000518798828,0 27.381000518798828,0z M14.489999771118164,-7.302000045776367 C14.489999771118164,-8.984000205993652 14.736000061035156,-10.583000183105469 15.57699966430664,-11.609000205993652 C16.172000885009766,-12.368000030517578 17.114999771118164,-12.859999656677246 18.30500030517578,-12.859999656677246 C19.822999954223633,-12.859999656677246 21.073999404907227,-12.0600004196167 21.68899917602539,-10.234999656677246 C21.996999740600586,-9.333000183105469 22.058000564575195,-8.307000160217285 22.058000564575195,-7.589000225067139 C22.058000564575195,-5.230000019073486 21.545000076293945,-4.080999851226807 21.05299949645996,-3.3429999351501465 C20.45800018310547,-2.4200000762939453 19.576000213623047,-1.968999981880188 18.284000396728516,-1.968999981880188 C16.80699920654297,-1.968999981880188 16.04800033569336,-2.5439999103546143 15.597000122070312,-3.1589999198913574 C14.71500015258789,-4.308000087738037 14.489999771118164,-5.88700008392334 14.489999771118164,-7.302000045776367z M11.166999816894531,-7.198999881744385 C11.166999816894531,-5.84499979019165 11.371999740600586,-3.384000062942505 12.991999626159668,-1.6610000133514404 C14.345999717712402,-0.2460000067949295 16.29400062561035,0.36899998784065247 18.243000030517578,0.36899998784065247 C19.474000930786133,0.36899998784065247 21.87299919128418,0.10300000011920929 23.513999938964844,-1.7430000305175781 C24.724000930786133,-3.0969998836517334 25.381000518798828,-5.394000053405762 25.381000518798828,-7.547999858856201 C25.381000518798828,-9.003999710083008 25.072999954223633,-11.321999549865723 23.493999481201172,-13.126999855041504 C22.038000106811523,-14.767999649047852 19.863000869750977,-15.13700008392334 18.284000396728516,-15.13700008392334 C12.951000213623047,-15.13700008392334 11.166999816894531,-11.13700008392334 11.166999816894531,-7.198999881744385z M1.4149999618530273,0 C1.4149999618530273,0 11.013999938964844,0 11.013999938964844,0 C11.013999938964844,0 11.013999938964844,-2.5230000019073486 11.013999938964844,-2.5230000019073486 C11.013999938964844,-2.5230000019073486 4.656000137329102,-2.5230000019073486 4.656000137329102,-2.5230000019073486 C4.656000137329102,-2.5230000019073486 4.656000137329102,-14.809000015258789 4.656000137329102,-14.809000015258789 C4.656000137329102,-14.809000015258789 1.4149999618530273,-14.809000015258789 1.4149999618530273,-14.809000015258789 C1.4149999618530273,-14.809000015258789 1.4149999618530273,0 1.4149999618530273,0z"/></g></g></svg>